<svg xmlns="http://www.w3.org/2000/svg" xmlns:xlink="http://www.w3.org/1999/xlink" width="151.585" height="28.058" viewBox="0 0 151.585 28.058"><defs><style>.a{fill:url(#a);}.b{fill:url(#b);}.c{fill:url(#c);}.d{fill:url(#d);}.e{fill:url(#e);}.f{fill:url(#f);}.g{fill:url(#g);}.h{fill:url(#h);}.i{fill:url(#i);}.j{fill:url(#j);}.k{fill:url(#k);}.l{fill:url(#l);}.m{fill:url(#m);}</style><linearGradient id="a" x1="0.5" y1="-0.019" x2="0.5" y2="2.128" gradientUnits="objectBoundingBox"><stop offset="0" stop-color="#60c4b6"/><stop offset="1" stop-color="#20c3ef"/></linearGradient><linearGradient id="b" x1="0.5" y1="-1.539" x2="0.5" y2="1.955" xlink:href="#a"/><linearGradient id="c" x1="0.5" y1="-4.642" x2="0.5" y2="1.736" xlink:href="#a"/><linearGradient id="d" x1="0.5" y1="-10.729" x2="0.5" y2="0.99" xlink:href="#a"/><linearGradient id="e" x1="0.5" y1="0" x2="0.5" y2="1" xlink:href="#a"/><linearGradient id="f" x1="0.5" y1="0" x2="0.5" y2="1" xlink:href="#a"/><linearGradient id="g" x1="0.5" y1="0" x2="0.5" y2="1" xlink:href="#a"/><linearGradient id="h" x1="0.5" y1="0" x2="0.5" y2="1" xlink:href="#a"/><linearGradient id="i" x1="0.5" y1="0" x2="0.5" y2="1" xlink:href="#a"/><linearGradient id="j" x1="0.5" y1="0" x2="0.5" y2="1" xlink:href="#a"/><linearGradient id="k" x1="0.5" y1="0" x2="0.5" y2="1" xlink:href="#a"/><linearGradient id="l" x1="0.5" y1="0" x2="0.5" y2="1" xlink:href="#a"/><linearGradient id="m" x1="0.5" y1="0.001" x2="0.5" y2="1" xlink:href="#a"/></defs><path class="a" d="M10.411,15.479A2.592,2.592,0,0,0,10.4,14.9c-.094-.4.117-.574.426-.73.75-.379,1.5-.773,2.246-1.156q3.867-1.986,7.739-3.977c.434-.223.859-.473,1.3-.672a.652.652,0,0,1,.5,0c2.481,1.293,4.953,2.6,7.43,3.9,1.2.629,2.4,1.25,3.6,1.875a3.321,3.321,0,0,0,.449.238c.469.152.516.5.488.918a37.733,37.733,0,0,1-.613,5.379c-.039.188-.1.375-.125.566-.035.254-.16.281-.383.207-1.156-.379-2.3-.777-3.477-1.106a25.662,25.662,0,0,0-5.332-.926c-.68-.043-1.359-.129-2.039-.121-.906.008-1.816.055-2.719.145a28.832,28.832,0,0,0-5.582,1.078c-.926.277-1.84.59-2.754.91-.258.09-.383.063-.426-.219-.191-1.188-.41-2.375-.578-3.567-.1-.719-.125-1.445-.18-2.172C10.388,15.483,10.4,15.479,10.411,15.479Z" transform="translate(-10.38 -8.318)"/><path class="b" d="M23.874,39.58A28.825,28.825,0,0,1,32.229,40.8c.945.289,1.871.641,2.813.949.27.09.309.23.227.488a24.342,24.342,0,0,1-2.227,5.047c-.266.453-.262.449-.781.3A27.723,27.723,0,0,0,26.9,46.6c-.848-.066-1.7-.125-2.551-.129a27.752,27.752,0,0,0-6.317.742c-.531.121-1.063.254-1.586.4a.368.368,0,0,1-.477-.2,26.3,26.3,0,0,1-2.379-5.242c-.078-.246-.008-.352.215-.434a31.351,31.351,0,0,1,7.106-1.895C22.061,39.705,23.217,39.639,23.874,39.58Z" transform="translate(-12.319 -27.368)"/><path class="c" d="M22.26,61.493c.352-.1.672-.2,1-.281a30.887,30.887,0,0,1,5.11-.789,27.041,27.041,0,0,1,8.594.984c.262.066.324.2.145.4-.84.969-1.676,1.938-2.535,2.895a.542.542,0,0,1-.426.1,26.524,26.524,0,0,0-5.363-.328c-1.1.051-2.191.207-3.289.293a.8.8,0,0,1-.586-.137c-.879-.977-1.731-1.984-2.586-2.981A1,1,0,0,1,22.26,61.493Z" transform="translate(-17.619 -40.042)"/><path class="d" d="M33.05,74.2a23.159,23.159,0,0,1,6.594.008c.039.051.082.1.121.152a1.356,1.356,0,0,0-.281.109c-.93.609-1.852,1.231-2.789,1.832a.543.543,0,0,1-.469.043c-1.031-.641-2.047-1.309-3.063-1.969C33.132,74.35,33.116,74.3,33.05,74.2Z" transform="translate(-24.194 -48.321)"/><g transform="translate(31.551 5.842)"><path class="e" d="M323.706,44.127a10.491,10.491,0,0,1-4.356-.746,5.6,5.6,0,0,1-3.606-4.672c-.051-.359-.062-.723-.09-1.082s.113-.535.488-.516q.5.023,1,0c.359-.016.477.133.523.5a7.645,7.645,0,0,0,.391,1.887,4.011,4.011,0,0,0,2.613,2.441,8.279,8.279,0,0,0,6.707-.309A3.311,3.311,0,0,0,328.98,37.1a3.764,3.764,0,0,0-1.41-1.344,8.414,8.414,0,0,0-2.066-.793c-1.918-.527-3.856-.98-5.774-1.512a4.554,4.554,0,0,1-2.5-1.625,5.248,5.248,0,0,1,.379-6.4,6.874,6.874,0,0,1,4.86-2.137,8.667,8.667,0,0,1,5.844,1.5,5.623,5.623,0,0,1,2.32,4.27c.035.4-.113.594-.535.566s-.914.113-1.2-.082c-.262-.18-.3-.7-.406-1.078a4.324,4.324,0,0,0-2.656-2.953,6.806,6.806,0,0,0-5.649.152,3.509,3.509,0,0,0-1.672,4.41,2.607,2.607,0,0,0,1.809,1.551c1.164.348,2.348.633,3.524.934a20.743,20.743,0,0,1,4.988,1.613,4.461,4.461,0,0,1,2.481,3.961,5.344,5.344,0,0,1-4.328,5.59c-1.07.246-2.172.355-3.258.527A.576.576,0,0,1,323.706,44.127Z" transform="translate(-227.951 -23.272)"/><path class="f" d="M283.58,34.34v9.336c0,.625-.027.648-.633.652-.254,0-.508-.016-.758,0-.457.035-.609-.172-.605-.617.012-2.117,0-4.235,0-6.352,0-.742-.008-1.484,0-2.227,0-.34-.133-.48-.477-.48q-5.4.006-10.805,0c-.434,0-.477.242-.477.578q.006,4.172,0,8.34c0,.75,0,.754-.77.75-1.344,0-1.219.125-1.219-1.223V25.043c0-.809.008-.816.824-.816,1.289,0,1.168-.09,1.172,1.18,0,2.3,0,4.613,0,6.918,0,.59.031.621.617.621h10.52c.582,0,.613-.031.613-.621q.006-3.7,0-7.395c0-.656.047-.7.7-.7,1.457,0,1.289-.137,1.293,1.293q0,4.412,0,8.821Z" transform="translate(-198.818 -23.852)"/><path class="g" d="M179.865,50.063c-.473.543-.836,1.043-1.277,1.457a4.81,4.81,0,0,1-2.895,1.285,6.85,6.85,0,0,1-3.93-.547,3.667,3.667,0,0,1-2-3.02,5.943,5.943,0,0,1,.023-1.418,3.5,3.5,0,0,1,2.832-3.02,39.618,39.618,0,0,1,4.086-.758c.59-.1,1.191-.133,1.781-.234a1.413,1.413,0,0,0,1.184-1.2c.211-1.641-.344-2.981-2.2-3.34a6.394,6.394,0,0,0-2.953.047A2.887,2.887,0,0,0,172.225,42c-.035.379-.18.543-.555.527-.285-.012-.57-.008-.852,0-.359,0-.5-.129-.449-.523.355-2.77,2.231-4.2,4.887-4.383a13.2,13.2,0,0,1,3.012.176,3.787,3.787,0,0,1,3.227,3.684c.078,2.746.074,5.492.1,8.239.008.992.2,1.184,1.184,1.2.074,0,.215.016.219.039a6.736,6.736,0,0,1,.086,1.152.52.52,0,0,1-.383.32,7.039,7.039,0,0,1-1.773-.121c-.766-.2-.934-.914-1.031-1.609C179.881,50.516,179.881,50.344,179.865,50.063Zm-.16-5.164c-.844.172-1.613.324-2.379.48-1.328.273-2.668.5-3.977.844a2.3,2.3,0,0,0-1.7,1.633,2.719,2.719,0,0,0,2.1,3.336,6.444,6.444,0,0,0,2.156.016,4.358,4.358,0,0,0,3.371-2.4C179.932,47.531,179.619,46.184,179.705,44.9Z" transform="translate(-139.031 -31.996)"/><path class="h" d="M210.665,40.084a4.936,4.936,0,0,1,3.543-2.477,6.224,6.224,0,0,1,4.445.7,3.166,3.166,0,0,1,1.477,1.844,11.191,11.191,0,0,1,.469,2.645c.059,2.984.023,5.973.02,8.957,0,.641-.02.664-.672.66-1.219,0-1.227.164-1.227-1.2.008-2.813.012-5.625,0-8.438a3.863,3.863,0,0,0-.824-2.613,3.516,3.516,0,0,0-3.277-1.082c-2.582.3-3.852,2.262-3.93,4.688-.09,2.637-.02,5.278-.02,7.914,0,.715,0,.723-.707.719-1.219,0-1.094.113-1.094-1.094q-.006-6.352,0-12.7c0-.7.008-.711.719-.711,1.211,0,1.078-.113,1.086,1.1Z" transform="translate(-162.877 -31.932)"/><path class="i" d="M366.791,35.185v8.481c0,.656-.019.684-.656.676-1.551-.016-1.332.207-1.332-1.32q-.012-8.074,0-16.153c0-.82,0-.82-.844-.82h-5.449c-.594,0-.629-.035-.629-.609,0-1.289-.109-1.191,1.16-1.191h13.879c.781,0,.8.02.8.793,0,1.078.09,1.008-.992,1.008h-5.258c-.652,0-.672.02-.672.66Z" transform="translate(-253.68 -23.865)"/><path class="j" d="M98.16,35.176V26.7c0-.617-.027-.645-.637-.648-1.879,0-3.758,0-5.637,0-.7,0-.73-.039-.738-.711-.008-1.086-.008-1.086,1.074-1.086h14.024c.82,0,.828.008.832.809,0,.992,0,.992-.977.992-1.785,0-3.57.012-5.356-.008-.457,0-.6.16-.6.609-.02,4.5-.055,9-.082,13.5-.008,1.184,0,2.367,0,3.555,0,.617-.031.648-.637.645-1.449-.012-1.254.176-1.258-1.258-.012-2.641,0-5.278-.008-7.914Z" transform="translate(-91.147 -23.868)"/><path class="k" d="M149.241,38.9V33.977c0-.586-.031-.613-.621-.617-.488,0-.98,0-1.469,0-.313,0-.445-.145-.469-.457-.082-1.137-.074-1.152,1.035-1.152.332,0,.664-.016,1,0,.387.02.539-.133.531-.523-.016-1.09.008-2.18-.012-3.27-.008-.434.152-.586.582-.578,1.41.027,1.219-.141,1.231,1.2.008.852,0,1.707,0,2.559,0,.578.035.605.625.609.617,0,1.23.008,1.848,0,.313,0,.449.117.469.445.063,1.152.059,1.168-1.09,1.168-.426,0-.855.02-1.277,0s-.586.141-.582.574c.02,1.484.008,2.969.008,4.453,0,1.563-.008,3.129,0,4.692a4,4,0,0,0,.113.887,1.007,1.007,0,0,0,1.082.863c.426.016.852.012,1.277,0,.316-.008.473.125.457.449,0,.047,0,.094,0,.141,0,.906.078.957-.879.934-.531-.012-1.066.027-1.6-.02a2.231,2.231,0,0,1-2.262-2.457c-.016-1.652,0-3.313,0-4.969Z" transform="translate(-124.97 -25.775)"/><path class="l" d="M139.162,45.819v6.586c0,.629-.027.66-.625.656-1.328,0-1.16.137-1.18-1.152-.02-1.434-.07-2.871-.074-4.3,0-1.3.07-2.609.066-3.914,0-1.469-.059-2.934-.082-4.4-.012-.7.035-.734.715-.73,1.328.008,1.176-.145,1.18,1.148C139.166,41.741,139.162,43.78,139.162,45.819Z" transform="translate(-119.25 -32.585)"/><path class="m" d="M139.16,25.713c0,.316-.012.633,0,.945.016.352-.109.523-.488.52-1.664-.027-1.383.2-1.41-1.344-.008-.379,0-.758,0-1.137a.4.4,0,0,1,.461-.465c1.66,0,1.414-.152,1.434,1.289C139.16,25.588,139.16,25.651,139.16,25.713Z" transform="translate(-119.248 -23.855)"/></g></svg>